solid
facet normal 0.338 -0.342 -0.877
outer loop
vertex 6.376 0 8.102
vertex 0 0 5.645
vertex 2.3 1.31 6.021
endloop
endfacet
facet normal 0.164 -0.004 -0.986
outer loop
vertex 0.774 1.31 5.768
vertex 2.3 1.31 6.021
vertex 0 0 5.645
endloop
endfacet
facet normal 0.496 0.202 -0.844
outer loop
vertex 2.3 2.961 6.416
vertex 6.376 0 8.102
vertex 2.3 1.31 6.021
endloop
endfacet
facet normal 0.559 0.338 -0.758
outer loop
vertex 2.3 4.512 7.108
vertex 6.376 0 8.102
vertex 2.3 2.961 6.416
endloop
endfacet
facet normal 0 0.093 -0.996
outer loop
vertex -0.774 1.31 5.768
vertex 0.774 1.31 5.768
vertex 0 0 5.645
endloop
endfacet
facet normal 0.638 0.437 -0.634
outer loop
vertex 2.3 5.91 8.072
vertex 6.376 0 8.102
vertex 2.3 4.512 7.108
endloop
endfacet
facet normal 0.757 0.653 0.024
outer loop
vertex 1.3 9.379 15.921
vertex 9.453 0 14.203
vertex 1.3 9.41 15.045
endloop
endfacet
facet normal -0.164 0 -0.986
outer loop
vertex -0.774 -1.31 5.768
vertex -2.3 1.31 6.021
vertex -0.774 1.31 5.768
endloop
endfacet
facet normal -0.157 0 -0.988
outer loop
vertex -0.774 -1.31 5.768
vertex -0.774 1.31 5.768
vertex 0 0 5.645
endloop
endfacet
facet normal -0.164 0 -0.986
outer loop
vertex -0.774 -1.31 5.768
vertex -2.3 -1.31 6.021
vertex -2.3 1.31 6.021
endloop
endfacet
facet normal 0.76 0.645 0.084
outer loop
vertex 1.3 9.266 16.79
vertex 9.453 0 14.203
vertex 1.3 9.379 15.921
endloop
endfacet
facet normal 0.736 0.671 -0.085
outer loop
vertex 4.763 5.973 20.791
vertex 9.453 0 14.203
vertex 1.3 9.266 16.79
endloop
endfacet
facet normal 0.874 0.421 0.241
outer loop
vertex 4.763 5.973 20.791
vertex 7.64 0 20.791
vertex 9.453 0 14.203
endloop
endfacet
facet normal 0.558 0.809 0.183
outer loop
vertex 4.763 5.973 20.791
vertex 1.3 9.266 16.79
vertex 1.3 9.072 17.645
endloop
endfacet
facet normal 0.181 0.793 0.582
outer loop
vertex -1.7 7.448 20.791
vertex 4.763 5.973 20.791
vertex 1.3 9.072 17.645
endloop
endfacet
facet normal 0.081 0.852 0.517
outer loop
vertex -1.7 7.448 20.791
vertex 1.3 9.072 17.645
vertex 0.435 9.155 17.645
endloop
endfacet
facet normal 0 0.879 0.477
outer loop
vertex -1.7 7.448 20.791
vertex 0.435 9.155 17.645
vertex -0.435 9.155 17.645
endloop
endfacet
facet normal -0.085 0.89 0.449
outer loop
vertex -1.7 7.448 20.791
vertex -0.435 9.155 17.645
vertex -1.3 9.072 17.645
endloop
endfacet
facet normal 0.338 0.342 -0.877
outer loop
vertex 6.376 0 8.102
vertex 2.3 -1.31 6.021
vertex 0 0 5.645
endloop
endfacet
facet normal 0.638 -0.437 -0.634
outer loop
vertex 6.376 0 8.102
vertex 2.3 -5.91 8.072
vertex 2.3 -4.512 7.108
endloop
endfacet
facet normal 0.559 -0.338 -0.758
outer loop
vertex 6.376 0 8.102
vertex 2.3 -4.512 7.108
vertex 2.3 -2.961 6.416
endloop
endfacet
facet normal 0.496 -0.202 -0.844
outer loop
vertex 6.376 0 8.102
vertex 2.3 -2.961 6.416
vertex 2.3 -1.31 6.021
endloop
endfacet
endsolid
